<svg xmlns="http://www.w3.org/2000/svg" viewBox="0 0 64 64" fill="none">
  <defs>
    <linearGradient id="g" x1="0" y1="0" x2="64" y2="64" gradientUnits="userSpaceOnUse">
      <stop offset="0" stop-color="#7c9cff"/>
      <stop offset="1" stop-color="#b88dff"/>
    </linearGradient>
    <linearGradient id="g2" x1="0" y1="0" x2="64" y2="64" gradientUnits="userSpaceOnUse">
      <stop offset="0" stop-color="#7c9cff" stop-opacity="0.35"/>
      <stop offset="1" stop-color="#b88dff" stop-opacity="0.35"/>
    </linearGradient>
  </defs>

  <!-- Arka plan: 3 katmanli dokuman yigini -->
  <rect x="14" y="20" width="30" height="36" rx="4" fill="url(#g2)"/>
  <rect x="18" y="16" width="30" height="36" rx="4" fill="url(#g2)" transform="rotate(-6 33 34)"/>
  <rect x="22" y="12" width="30" height="36" rx="4" fill="url(#g)"/>

  <!-- "R" harfi (RAG temasi) -->
  <path d="M30 22 H40 Q44 22 44 26 Q44 29 41 30 L46 38 H42 L37 31 H33 V38 H30 Z M33 25 V28 H39 Q41 28 41 26.5 Q41 25 39 25 Z"
        fill="white"/>

  <!-- Embedding noktalari: sol altta 3 dot (retrieve) -->
  <circle cx="28" cy="44" r="1.5" fill="white" opacity="0.9"/>
  <circle cx="33" cy="44" r="1.5" fill="white" opacity="0.6"/>
  <circle cx="38" cy="44" r="1.5" fill="white" opacity="0.3"/>
</svg>
